# xmcd CD database file
#
# Track frame offsets:
#	150
#	22822
#	45309
#	64510
#	109294
#	128197
#	150632
#	165175
#	184962
#	188839
#	205668
#	232304
#	264706
#
# Disc length: 3835 seconds
#
# Revision: 0
# Processed by: cddbd v1.5PL3 Copyright (c) Steve Scherf et al.
# Submitted via: CDex 1.50beta10
#
DISCID=a90ef90d
DTITLE=Nico Wayne Toussaint - Transatlantic Live
DYEAR=2004
DGENRE=Blues
TTITLE0=What a woman
TTITLE1=Can't you tell
TTITLE2=I can't stop playing the blues
TTITLE3=Nineteen years old
TTITLE4=I want more
TTITLE5=Mercy, mercy, mercy
TTITLE6=Mighty crazy
TTITLE7=No sweat
TTITLE8=Introduction
TTITLE9=When the bobcat play
TTITLE10=Close to you
TTITLE11=Wang dang doodle
TTITLE12=Shake your hips
EXTD=YEAR: 2004
EXTT0=
EXTT1=
EXTT2=
EXTT3=
EXTT4=
EXTT5=
EXTT6=
EXTT7=
EXTT8=
EXTT9=
EXTT10=
EXTT11=
EXTT12=
PLAYORDER=
